<svg width="560" height="390" viewBox="0 0 560 390" fill="none" xmlns="http://www.w3.org/2000/svg">
<g clip-path="url(#clip0_1616_4039)">
<rect y="0.324707" width="560" height="389" rx="10" fill="url(#paint0_linear_1616_4039)"/>
<circle cx="330.371" cy="99.9819" r="85.5582" fill="#6578BD"/>
<path d="M289.844 175.351C290.781 162.524 292.42 148.332 294.938 143.524C298.705 136.33 317.774 127.966 326.838 124.683C337.329 126.467 359.424 132.134 363.877 140.526C366.923 146.268 369.141 161.888 370.49 175.57C358.525 181.934 344.869 185.54 330.372 185.54C315.708 185.54 301.907 181.851 289.844 175.351Z" fill="#90A5F1"/>
<path d="M308.809 178.421C309.701 171.356 309.773 157.89 309.772 156.262" stroke="#859AE7" stroke-width="2.4" stroke-linecap="round" stroke-linejoin="round"/>
<path d="M297.375 93.3279C302.085 90.2449 306.473 93.4706 308.078 95.4688C312.361 97.6812 318.356 103.241 308.078 107.779C295.232 113.453 291.487 97.1816 297.375 93.3279Z" fill="#FFC385"/>
<path d="M358.539 93.3279C353.829 90.2449 349.441 93.4706 347.836 95.4688C343.553 97.6812 337.558 103.241 347.836 107.779C360.682 113.453 364.427 97.1816 358.539 93.3279Z" fill="#FFC385"/>
<path d="M320.756 135.532C320.43 133.831 319.257 124.165 318.711 119.545L339.247 118.708C338.901 123.364 338.099 133.111 337.655 134.843C337.1 137.008 333.009 141.782 329.801 141.913C326.592 142.044 321.163 137.658 320.756 135.532Z" fill="#FFC385"/>
<path d="M352.61 90.8658C351.669 94.8908 348.864 103.676 347.578 107.565C336.124 108.921 312.317 110.82 308.72 107.565C304.224 103.497 295.231 79.3046 304.437 68.8139C313.643 58.3231 324.671 58.6443 329.702 58.6443C334.733 58.6443 344.26 52.3285 345.224 54.0413C345.994 55.4115 346.401 59.6078 346.508 61.5346C348.97 60.143 354.151 57.6166 355.179 58.6443C356.206 59.672 354.75 64.4249 353.894 66.6729C355.785 65.2813 359.846 62.7763 360.959 63.8896C362.351 65.2813 358.39 76.3072 356.891 78.6623C355.393 81.0174 353.787 85.8345 352.61 90.8658Z" fill="#E7A144"/>
<path d="M339.065 121.061C338.994 121.954 338.916 122.92 338.833 123.912C336.991 127.23 333.566 131.133 328.818 130.731C324.121 130.335 321.061 127.954 319.491 126.036C319.382 125.147 319.274 124.262 319.172 123.415L320.04 122.007L334.866 119.705L339.065 121.061Z" fill="#F5A375"/>
<path d="M347.562 113.555C350.262 106.775 349.837 89.2297 349.287 81.3047C348.537 78.6797 340.437 84.5297 328.887 84.9047C317.337 85.2797 310.587 81.3047 309.462 81.3047C308.337 81.3047 307.512 83.1047 307.887 88.3547C308.262 93.6047 306.087 93.9797 306.162 95.1797C306.237 96.3797 307.812 104.105 309.462 112.43C311.112 120.755 320.562 128.33 328.437 128.105C336.312 127.88 344.187 122.03 347.562 113.555Z" fill="#FFC385"/>
<path d="M323.613 115.13C325.038 116.605 328.758 118.805 332.238 115.805" stroke="#00091B" stroke-width="1.2" stroke-linecap="round" stroke-linejoin="round"/>
<path d="M329.936 97.7295C330.911 101.354 332.621 109.024 331.661 110.704C330.701 112.384 328.461 112.104 327.461 111.754" stroke="#F5A375" stroke-width="1.2" stroke-linecap="round" stroke-linejoin="round"/>
<path d="M323.113 90.2294C321.788 89.5794 318.673 88.7444 316.812 90.6044" stroke="#AC4C42" stroke-width="1.68" stroke-linecap="round" stroke-linejoin="round"/>
<path d="M335.785 90.3046C336.86 89.2796 339.64 87.9196 342.16 90.6796" stroke="#AC4C42" stroke-width="1.68" stroke-linecap="round" stroke-linejoin="round"/>
<circle cx="319.471" cy="102.751" r="2.09623" fill="#00091B"/>
<circle cx="337.62" cy="102.751" r="2.09623" fill="#00091B"/>
<rect x="319.883" y="143.095" width="18.4734" height="33.0779" rx="4.8" fill="#1B2E72"/>
<circle cx="323.357" cy="147.841" r="1.29441" fill="#5365A4"/>
<circle cx="323.357" cy="152.39" r="1.29441" fill="#5365A4"/>
<path d="M317.899 184.638C317.087 184.519 316.28 184.389 315.476 184.248L307.141 178.85C309.14 174.925 313.223 166.882 313.565 166.111C313.974 165.189 317.916 158.624 318.533 157.597C318.561 157.551 318.582 157.516 318.595 157.494C318.852 157.065 319.38 156.673 319.612 156.53V162.471C321.646 160.562 326.003 156.894 327.159 157.494C328.315 158.093 325.25 163.952 323.573 166.807C325.464 165.344 329.493 162.685 330.478 163.756C331.462 164.826 328.105 170.375 326.303 173.016C327.302 172.177 329.418 170.81 329.889 172.052C330.478 173.604 323.734 180.884 320.95 182.061C319.386 182.723 318.417 183.793 317.899 184.638Z" fill="#FFC385"/>
<path d="M349.7 176.173C349.699 169.715 349.014 160.523 349.699 158.296" stroke="#859AE7" stroke-width="2.4" stroke-linecap="round" stroke-linejoin="round"/>
<path d="M342.861 184.635C341.711 184.803 340.554 184.949 339.391 185.07C336.466 181.808 329.821 173.342 330.64 172.48C331.453 171.624 333.083 173.051 333.797 173.872C332.708 172.32 330.713 169.023 331.441 168.252C332.169 167.481 334.1 168.573 334.974 169.215C333.94 167.413 332.255 163.595 333.797 162.739C335.338 161.882 337.186 163.738 337.918 164.773C337.133 162.56 335.937 158.136 337.436 158.136C338.935 158.136 341.629 163.024 342.789 165.469C342.861 164.791 343.164 163.51 343.807 163.809C344.451 164.109 348.249 172.248 350.068 176.28C350.068 177.611 345.637 182.13 342.861 184.635Z" fill="#FFC385"/>
<circle cx="274.734" cy="293.695" r="67.4289" fill="#F8BC6E"/>
<path d="M244.091 353.775C243.371 346.462 242.864 339.076 243.251 335.686C243.936 329.691 255.669 320.342 261.449 316.417C260.592 315.347 259.692 312.007 262.947 307.211C267.015 301.216 280.824 295.115 295.276 298.968C306.837 302.051 304.518 308.531 301.913 311.386C304.411 311.743 310.006 313.634 312.404 318.344C314.056 321.589 315.667 334.642 316.79 346.404C305.259 355.616 290.64 361.124 274.734 361.124C263.7 361.124 253.285 358.473 244.091 353.775Z" fill="url(#paint1_linear_1616_4039)"/>
<path d="M274.06 322.604C271.583 325.423 266.715 332.393 267.056 337.723" stroke="#B8EEFF" stroke-linecap="round"/>
<path d="M277.992 322.945C278.676 324.654 280.231 330.77 280.982 341.567" stroke="#B8EEFF" stroke-linecap="round"/>
<path d="M257.855 319.008C259.18 318.003 260.412 317.123 261.451 316.417C261.415 316.373 261.38 316.325 261.345 316.273C261.856 316.649 262.765 317.245 264.216 318.054C266.443 319.296 270.175 320.641 271.763 321.159C268.962 321.462 262.407 321.544 258.596 319.446C258.331 319.3 258.084 319.154 257.855 319.008Z" fill="#63C9ED"/>
<path d="M302.194 311.431C303.763 311.703 306.291 312.502 308.562 314.079C302.32 317.716 287.635 319.152 292.812 318.023C296.974 317.115 300.495 313.632 302.194 311.431Z" fill="#63C9ED"/>
<path d="M259.354 359.361C258.57 359.178 257.79 358.981 257.016 358.771L259.407 342.576C259.504 341.92 260.114 341.467 260.77 341.564C261.425 341.661 261.878 342.271 261.781 342.926L259.354 359.361Z" fill="#63C9ED"/>
<path d="M298.2 356.928C297.387 357.23 296.566 357.517 295.738 357.788L297.505 330.897C297.548 330.236 298.119 329.735 298.781 329.778C299.442 329.822 299.943 330.393 299.899 331.054L298.2 356.928Z" fill="#63C9ED"/>
<path d="M286.285 308.282C287.312 306.312 285.285 288.264 284.143 279.486C279.645 276.381 263.269 298.219 263.591 301.859C263.912 305.498 269.371 316.203 273.439 316.203C277.507 316.203 285 310.744 286.285 308.282Z" fill="#A57D4E"/>
<rect x="232.086" y="318.266" width="20.201" height="36.5708" rx="3.6" transform="rotate(-25.4135 232.086 318.266)" fill="#1B2E72"/>
<circle cx="236.988" cy="321.218" r="1.22972" fill="#5365A4"/>
<circle cx="241.323" cy="321.218" r="1.22972" fill="#5365A4"/>
<circle cx="239.546" cy="326.035" r="1.22972" fill="#5365A4"/>
<path d="M247.62 355.453C243.467 353.627 239.532 351.394 235.867 348.805C236.201 345.769 236.946 340.794 238.002 338.683C239.201 336.285 240.071 335.186 240.357 334.937L241.749 338.683C243.675 336.096 247.979 331.158 249.777 332.1C251.576 333.042 249.599 337.095 248.386 339.004C249.652 337.434 252.55 334.733 254.006 336.489C255.556 338.358 250.737 350.402 247.62 355.453Z" fill="#A57D4E"/>
<path d="M242.821 283.018C238.153 278.95 239.271 267.336 240.413 262.037C240.876 259.338 248.777 259.092 252.67 259.307C251.332 268.906 247.488 287.086 242.821 283.018Z" fill="#161626"/>
<path d="M267.68 311.293C277.267 309.868 282.903 292.545 284.571 283.66C280.116 281.006 276.864 287.05 275.794 290.405L267.325 294.408C265.028 297.793 263.49 300.719 263.591 301.859C263.767 303.855 265.489 307.978 267.68 311.293Z" fill="#8A673C"/>
<path d="M256.952 306.569C242.392 304 240.181 278.665 240.895 266.319C242.251 261.609 248.132 252.188 260.806 252.188C276.649 252.188 284.143 264.178 284.785 275.311C285.427 286.444 275.151 309.78 256.952 306.569Z" fill="#A57D4E"/>
<path d="M259.895 296.025C261.804 296.774 265.944 297.341 267.228 293.616" stroke="#00091B" stroke-width="1.2" stroke-linecap="round" stroke-linejoin="round"/>
<path d="M252.188 271.564C250.51 271.297 246.823 271.232 245.496 273.116" stroke="#00091B" stroke-width="1.2" stroke-linecap="round" stroke-linejoin="round"/>
<path d="M266.156 270.547C267.441 269.548 270.707 268.149 273.49 270.547" stroke="#00091B" stroke-width="1.2" stroke-linecap="round" stroke-linejoin="round"/>
<path d="M257.593 280.877C257.022 284.249 256.222 291.058 257.593 291.314C258.964 291.571 260.27 290.387 260.752 289.762" stroke="#8A673C" stroke-width="1.2" stroke-linecap="round" stroke-linejoin="round"/>
<path d="M282.753 276.917C284.723 277.773 285.358 275.775 285.429 274.669C285.964 271.493 286.712 263.792 285.429 258.397C283.825 251.653 271.726 243.303 255.454 248.442C239.183 253.58 239.182 264.927 240.574 265.891C241.966 266.854 249.139 270.28 256.846 268.781C264.554 267.282 275.366 262.893 277.399 262.572C279.433 262.251 280.29 275.846 282.753 276.917Z" fill="#161626"/>
<path d="M288.102 270.065C285.447 270.751 283.999 273.848 283.607 275.311C283.125 277.202 282.451 281.273 283.607 282.43C285.052 283.875 290.405 286.337 292.974 280.182C295.543 274.026 291.422 269.209 288.102 270.065Z" fill="#A57D4E"/>
<circle cx="249.617" cy="283.072" r="1.9804" fill="#00091B"/>
<circle cx="267.82" cy="282.176" r="1.9804" fill="#00091B"/>
<path d="M162.803 128.794C163.189 126.48 165.191 124.785 167.537 124.785H197.712C199.937 124.785 201.63 126.784 201.263 128.979L190.969 190.561C190.389 194.031 187.386 196.574 183.867 196.574H155.724C153.499 196.574 151.807 194.575 152.174 192.38L162.803 128.794Z" fill="#1B2E72"/>
<circle cx="169.581" cy="132.644" r="3.03384" fill="#5365A4"/>
<circle cx="168.299" cy="143.241" r="3.03384" fill="#5365A4"/>
<path d="M179.198 201.826C178.652 203.604 177.318 211.569 176.719 215.329C177.146 216.868 179.095 219.842 183.471 219.431C187.846 219.021 194.011 217.38 196.546 216.611C198.398 209.404 202.187 193.793 202.529 189.007C202.956 183.024 189.624 151.659 187.744 152.514C186.24 153.198 187.117 159.579 187.744 162.684C186.462 160.918 183.642 157.744 182.616 159.18C181.59 160.616 182.189 167.926 182.616 171.401C181.249 168.837 178.223 164.24 177.061 166.359C175.608 169.008 181.761 189.947 181.847 190.545C181.932 191.143 179.881 199.604 179.198 201.826Z" fill="#FFC385"/>
<path d="M149.201 237.379C139.903 222.611 123.22 206.84 116.041 200.8C109.718 199.091 110.742 249.856 117.408 259.257C124.074 268.658 151.593 300.621 166.634 306.262C181.676 311.902 189.88 303.869 194.837 292.246C199.794 280.623 198.427 222.166 198.854 221.226C199.281 220.286 200.649 214.731 199.623 213.107C198.598 211.483 183.556 216.355 181.676 216.355C179.796 216.355 176.463 212.167 175.95 211.483C175.437 210.8 170.224 214.645 169.54 216.355C168.856 218.064 172.19 221.568 172.531 222.166C172.873 222.764 169.54 226.268 168.686 228.832C167.831 231.396 166.293 258.061 165.438 260.624C164.583 263.188 160.823 255.839 149.201 237.379Z" fill="#B883FF"/>
<path d="M165.498 260.768C165.119 264.994 165.129 274.214 168.205 277.291" stroke="#B073FF" stroke-width="2" stroke-linecap="round" stroke-linejoin="round"/>
<path d="M86.7675 185.366C98.7336 187.943 109.857 193.957 113.922 196.642C140.996 218.057 140.995 247.458 140.995 262.371V262.505C140.995 277.375 135.783 294.212 132.101 305.718C129.155 314.923 130.873 348.52 132.101 364.168H35.4501C34.683 317.608 33.6091 222.599 35.4501 215.051C37.291 207.503 53.4 195.798 61.2244 190.889C64.7529 187.974 74.8014 182.788 86.7675 185.366Z" fill="url(#paint2_linear_1616_4039)"/>
<path d="M49.8555 198.905C53.434 202.022 59.7825 206.81 65.7885 209.005C72.8985 211.603 81.7409 212.367 85.2733 212.424L61.3615 190.777C61.3149 190.815 61.2692 190.852 61.2246 190.889C58.2278 192.769 54.0157 195.646 49.8555 198.905Z" fill="#B073FF"/>
<path d="M65.5647 26.1338C87.7946 31.2063 84.8975 54.9769 80.6702 66.2281C78.4941 74.1849 68.6967 87.2264 46.9152 75.7389C19.6884 61.3795 37.7774 19.7933 65.5647 26.1338Z" fill="#AC4C42"/>
<path d="M121.788 198.057C119.674 193.332 112.618 191.737 109.354 191.529C107.955 194.586 105.996 201.259 109.354 203.497C113.551 206.295 112.462 241.112 115.26 242.977C118.058 244.842 123.342 239.247 125.207 235.05C127.073 230.853 131.269 239.868 133.601 236.449C135.932 233.029 124.43 203.964 121.788 198.057Z" fill="#D1AEFF"/>
<path d="M111.901 212.475C116.547 209.782 118.742 202.67 119.274 199.235L110.715 205.978C111.208 207.599 111.589 209.86 111.901 212.475Z" fill="#C39DF5"/>
<path d="M62.8325 174.09C67.5194 171.522 85.9983 178.922 96.2004 182.374C123.311 183.523 121.289 192.011 120.138 196.848L120.132 196.872C118.982 201.704 111.618 211.369 93.4383 214.131C75.2589 216.892 57.5394 201.474 55.6985 196.872C53.8575 192.269 55.6971 178.002 62.8325 174.09Z" fill="#D1AEFF"/>
<path d="M85.6148 269.513C85.4774 271.154 83.6216 276.008 82.7109 278.23C84.5908 285.409 89.1026 299.356 92.1109 297.715C95.8713 295.664 115.87 273.273 117.408 266.949C118.946 260.625 111.255 255.326 105.956 253.788C100.657 252.249 97.5805 255.497 96.8968 256.864C96.2131 258.232 90.7435 259.086 88.3505 260.112C85.9576 261.137 85.7867 267.462 85.6148 269.513Z" fill="#FFC385"/>
<path d="M96.6406 257.462C97.4383 258.402 99.3242 260.266 100.487 260.197" stroke="#F5A375" stroke-width="2.4" stroke-linecap="round" stroke-linejoin="round"/>
<path d="M102.022 258.573C101.167 259.798 98.7906 262.402 96.125 263.018" stroke="#F5A375" stroke-width="2.4" stroke-linecap="round" stroke-linejoin="round"/>
<path d="M23.3967 232.593C29.1389 218.919 37.1846 210.942 40.4896 208.663C46.4588 202.988 56.5568 231.225 56.044 238.233C55.5312 245.241 52.7964 292.417 53.9929 293.442C55.1894 294.468 66.6414 282.845 68.5216 281.307C70.4018 279.768 75.7005 277.888 77.0679 277.888C78.4353 277.888 78.0934 273.786 80.1445 272.418C82.1956 271.051 97.579 291.562 97.579 293.442C97.579 295.322 96.3825 299.767 94.1604 301.818C91.9384 303.869 73.3075 336.516 65.1031 343.694C56.8986 350.873 35.0207 364.206 23.3967 339.934C11.7726 315.663 16.2189 249.685 23.3967 232.593Z" fill="#B883FF"/>
<path d="M54.9648 293.102C52.4477 295.808 47.4422 302.787 47.5566 309.055" stroke="#B073FF" stroke-width="2" stroke-linecap="round" stroke-linejoin="round"/>
<path d="M59.5963 143.06C50.7934 133.214 49.0905 119.439 49.7131 111.171L70.9728 99.9819L91.1132 107.814L79.5511 156.487C76.5674 156.114 68.3993 152.906 59.5963 143.06Z" fill="#AC4C42"/>
<path d="M73.9552 163.014V137.093L86.1713 136.533L100.624 138.771L113.398 169.634C112.186 176.907 109.65 191.695 109.202 192.665C108.643 193.877 108.177 198.166 93.1645 198.912C81.1548 199.509 73.2409 191.95 70.7852 188.096C71.8418 183.403 73.9552 171.816 73.9552 163.014Z" fill="#FFC385"/>
<path d="M112.555 167.606L113.395 169.634C112.754 173.483 111.741 179.437 110.864 184.333C83.9969 183.838 78.5754 154.924 79.176 144.365L90.5518 149.587L112.371 167.49C112.432 167.528 112.494 167.567 112.555 167.606Z" fill="#F5A375"/>
<path d="M67.4283 64.3633C76.3791 55.412 84.8343 59.266 87.9431 62.3119L65.937 84.6902C62.7046 81.6442 58.4774 73.3146 67.4283 64.3633Z" fill="#B883FF"/>
<path d="M141.277 167.49C150.826 149.885 150.478 111.668 149.11 94.7604C148.845 90.9792 141.277 69.0254 117.034 70.5173C92.7901 72.0092 76.0069 87.301 77.8718 134.295C79.7366 181.29 129.342 189.495 141.277 167.49Z" fill="#FFC385"/>
<path d="M109.297 147.909C110.042 145.969 124.123 153.177 124.123 154.715C124.87 157.14 120.672 159.098 116.756 158.165C112.84 157.233 108.364 150.333 109.297 147.909Z" fill="white"/>
<path d="M119.644 108.374C117.778 106.198 112.817 103.152 107.895 108.374" stroke="#AC4C42" stroke-width="2.4" stroke-linecap="round" stroke-linejoin="round"/>
<path d="M144.452 107.535C142.587 105.359 137.626 102.313 132.703 107.535" stroke="#AC4C42" stroke-width="2.4" stroke-linecap="round" stroke-linejoin="round"/>
<circle cx="113.399" cy="127.217" r="4.29727" fill="#00091B"/>
<circle cx="138.579" cy="128.235" r="4.29727" fill="#00091B"/>
<path d="M128.409 124.411C129.373 130.472 131.151 143.228 130.554 145.764C129.807 148.934 125.145 145.857 124.492 144.179" stroke="#F5A375" stroke-width="2.4" stroke-linecap="round" stroke-linejoin="round"/>
<path d="M64.8158 119.376C73.6176 113.111 80.791 119.501 83.2775 123.479C86.2608 129.447 84.3972 142.128 71.7162 143.247C59.0352 144.365 53.8136 127.209 64.8158 119.376Z" fill="#FFC385"/>
<path d="M110.32 108.933C100.026 126.388 83.9012 124.909 77.1252 121.987C64.0246 113.782 57.7307 125.484 59.3158 134.249C56.5182 132.508 50.0092 126.314 49.7108 115.274C49.3378 101.474 51.5761 85.6226 74.5138 67.3471C97.4515 49.0715 125.051 48.512 149.667 67.3471C174.283 86.1821 160.67 112.849 158.992 119.563C157.313 126.276 161.043 131.311 160.67 133.176C160.297 135.041 150.973 130.566 149.667 129.074C148.362 127.582 151.719 108.933 142.581 104.644C135.271 101.213 125.735 87.7983 121.881 81.5199C122.316 83.3848 120.613 91.4782 110.32 108.933Z" fill="#AC4C42"/>
<rect x="363.012" y="249.256" width="32.0883" height="58.0909" rx="6" fill="#1B2E72"/>
<circle cx="389.538" cy="257.289" r="2.6707" fill="#5365A4"/>
<circle cx="381.725" cy="262.885" r="2.6707" fill="#5365A4"/>
<circle cx="389.538" cy="268.227" r="2.6707" fill="#5365A4"/>
<path d="M391.337 353.508C391.337 353.508 400.452 335.276 405.01 326.16L422.11 332.095C422.71 339.233 423.55 355.466 422.11 363.295C420.31 373.082 405.01 403.795 381.59 398.486C360.248 393.648 369.291 332.186 369.291 327.751C369.291 323.316 358.66 304.945 358.81 297.745C358.96 290.545 363.46 276.895 365.11 277.045C366.43 277.165 365.66 284.695 365.11 288.445C367.66 285.595 373 280.075 373.96 280.795C374.92 281.515 373.56 288.495 372.76 291.895C374.46 289.495 378.16 285.115 379.36 286.795C380.56 288.475 377.26 298.495 375.46 303.295C378.11 306.645 383.71 314.065 384.91 316.945C386.11 319.825 389.695 342.521 391.337 353.508Z" fill="#BD915C"/>
<path d="M391.512 353.395C392.962 355.145 396.282 360.385 397.962 367.345" stroke="#937047" stroke-width="2.4" stroke-linecap="round" stroke-linejoin="round"/>
<path d="M408.088 296.932C414.378 288.727 425.408 281.093 430.138 278.301V308.726L423.983 348.722L395.098 336.245C396.807 326.559 401.798 305.136 408.088 296.932Z" fill="url(#paint3_linear_1616_4039)"/>
<path d="M420.911 357.595C418.511 357.355 405.611 346.495 399.461 341.095L401.261 336.145L429.011 344.545C427.311 348.995 423.311 357.835 420.911 357.595Z" fill="#A07644"/>
<path d="M394.413 325.648C395.233 324.69 414.126 334.365 423.47 339.322C423.694 339.44 421.455 347.12 420.308 350.945L393.387 339.322C393.387 335.162 393.592 326.605 394.413 325.648Z" fill="#F38E8A"/>
<path d="M439.88 281.378C446.376 272.148 460.391 265.994 470.647 266.336C477.712 267.59 492.867 272.353 496.969 281.378C501.071 290.403 498.678 367.41 496.969 404.786H422.445C426.092 366.727 434.684 288.762 439.88 281.378Z" fill="url(#paint4_linear_1616_4039)"/>
<path d="M439.196 316.588C441.657 303.461 450.25 282.631 454.238 273.857L452.528 264.627C442.614 270.267 423.813 278.13 419.026 292.146C415.381 302.817 412.76 369.12 413.558 402.393H439.196C438.17 379.261 436.735 329.715 439.196 316.588Z" fill="url(#paint5_linear_1616_4039)"/>
<path d="M477.911 331.195C480.311 313.675 486.311 285.095 489.011 272.995C492.312 266.095 508.21 280.495 510.61 287.395C512.53 292.915 508.01 366.295 505.51 402.295H477.911C476.911 385.895 475.511 348.715 477.911 331.195Z" fill="url(#paint6_linear_1616_4039)"/>
<path d="M500.711 347.395V324.295C503.711 309.295 524.711 316.795 527.411 332.995C529.571 345.955 526.511 386.195 524.711 404.695H497.711C498.711 387.595 500.711 352.195 500.711 347.395Z" fill="#BD915C"/>
<path d="M500.71 341.775V347.395C500.71 348.631 500.577 351.895 500.363 356.353C511.234 355.417 522.484 347.832 526.811 344.095L500.71 341.775Z" fill="#A07644"/>
<path d="M521.41 301.645C517.09 292.525 509.11 283.645 505.66 280.345C501.011 277.495 498.46 316.045 497.41 320.245C496.57 323.605 497.76 338.745 498.46 345.895C500.86 345.945 506.98 345.775 512.26 344.695C517.54 343.615 527.66 339.945 532.06 338.245C530.31 329.845 525.73 310.765 521.41 301.645Z" fill="url(#paint7_linear_1616_4039)"/>
<path d="M513.909 337.495C517.389 337.135 527.459 333.945 532.059 332.395C533.159 335.345 535.299 341.455 535.059 342.295C534.759 343.345 518.109 349.045 516.309 349.045C514.509 349.045 498.909 349.945 497.859 349.045C496.809 348.145 495.759 339.895 496.359 338.845C496.959 337.795 509.559 337.945 513.909 337.495Z" fill="#F38E8A"/>
<path d="M441.246 309.068C441.793 309.888 453.496 285.993 458.51 271.806C458.51 267.989 456.443 258.867 448.511 266.251C436.119 275.224 426.375 301.205 426.375 303.94C426.375 306.675 433.042 306.675 435.777 304.965C438.512 303.256 440.563 308.042 441.246 309.068Z" fill="#F38E8A"/>
<path d="M486.202 283.771C492.929 274.8 485.86 261.379 494.919 237.963L463.469 240.868C459.651 244.743 451.913 254.748 451.502 263.772C450.99 275.053 448.428 287.873 458.512 289.753C468.597 291.633 481.587 289.924 486.202 283.771Z" fill="#BD915C"/>
<path d="M496.36 272.845C495.4 268.165 491.66 265.995 489.91 265.495C486.01 283.345 478.39 319.105 479.11 319.345C480.01 319.645 484.66 312.595 487.21 310.645C489.76 308.695 494.71 312.445 496.36 312.595C498.01 312.745 497.56 278.695 496.36 272.845Z" fill="#F38E8A"/>
<path d="M450.84 276.981C466.263 273.966 487.75 261.711 491.625 246.45L451.716 261.711C451.606 262.401 451.533 263.09 451.502 263.772C451.43 265.357 451.318 266.972 451.206 268.583C451.005 271.461 450.806 274.326 450.84 276.981Z" fill="#A07644"/>
<path d="M454.922 268.216C430.581 268.9 429.283 224.402 431.676 202.068C431.469 168.4 479.879 176.258 493.553 195.573C504.492 211.025 499.364 230.271 495.433 237.962C492.071 247.762 479.262 267.533 454.922 268.216Z" fill="#BD915C"/>
<path d="M492.354 233.006C494.679 234.1 496.741 228.676 497.482 225.827C502.213 233.621 496.115 233.86 488.936 249.586C488.936 251.067 489.619 254.064 492.354 254.201C495.088 254.337 498.165 251.181 499.362 249.586C502.211 251.181 508.797 253.414 512.352 249.586C515.908 245.757 516.341 237.507 516.113 233.86C516.113 233.86 525.001 231.126 527.907 219.161C530.231 209.589 519.417 207.538 513.72 207.709C519.076 206.114 528.83 200.838 525.001 192.496C521.172 184.155 511.099 189.021 506.541 192.496C511.555 182.64 519.292 161.217 510.13 154.38C500.969 147.543 490.702 158.482 486.714 164.807C485.232 157.856 478.2 144.295 461.929 145.663C445.658 147.03 441.476 160.021 441.418 166.345C436.632 161.844 425.145 157.217 417.488 174.72C409.83 192.223 423.755 205.715 431.674 210.273L432.529 201.214C434.41 205.202 440.016 213.178 447.4 213.178C454.784 213.178 463.582 205.202 467.057 201.214C466.829 204.404 467.192 211.059 470.473 212.153C473.755 213.247 479.704 210.216 482.268 208.564C482.268 208.564 480.218 214.204 483.466 216.084C486.064 217.588 490.474 215.458 492.354 214.204C491.784 215.514 490.507 218.614 489.96 220.528C489.276 222.921 489.447 231.638 492.354 233.006Z" fill="#161626"/>
<path d="M461.93 248.816C463.923 250.041 468.321 251.244 469.962 246.253" stroke="#00091B" stroke-width="2.4" stroke-linecap="round" stroke-linejoin="round"/>
<path d="M437.66 218.819C438.543 216.939 441.438 214.136 445.95 217.964" stroke="#00091B" stroke-width="2.4" stroke-linecap="round" stroke-linejoin="round"/>
<path d="M464.324 217.451C466.717 215.372 472.392 212.648 475.947 218.392" stroke="#00091B" stroke-width="2.4" stroke-linecap="round" stroke-linejoin="round"/>
<path d="M501.927 225.058C496.868 223.896 493.666 227.024 492.698 228.733C490.904 231.468 489.535 236.253 492.698 239.33C495.861 242.407 501.329 244.031 505.003 239.843C508.678 235.655 508.251 226.511 501.927 225.058Z" fill="#BD915C"/>
<path d="M454.922 223.434C453.982 229.559 452.665 242.15 454.922 243.518C457.179 244.885 458.655 241.923 459.111 240.27" stroke="#937047" stroke-width="2.4" stroke-linecap="round" stroke-linejoin="round"/>
<circle cx="441.383" cy="228.781" r="3.02795" fill="#00091B"/>
<circle cx="467.622" cy="229.294" r="3.02795" fill="#00091B"/>
</g>
<defs>
<linearGradient id="paint0_linear_1616_4039" x1="280" y1="0.324707" x2="280" y2="389.325" gradientUnits="userSpaceOnUse">
<stop stop-color="#FFEACD"/>
<stop offset="1" stop-color="#FFF2E0"/>
</linearGradient>
<linearGradient id="paint1_linear_1616_4039" x1="281.646" y1="297.868" x2="281.646" y2="368.657" gradientUnits="userSpaceOnUse">
<stop stop-color="#61D9FF"/>
<stop offset="1" stop-color="#84E1FF"/>
</linearGradient>
<linearGradient id="paint2_linear_1616_4039" x1="93.4775" y1="280.11" x2="87.7141" y2="356.685" gradientUnits="userSpaceOnUse">
<stop stop-color="#B073FF"/>
<stop offset="1" stop-color="#B073FF" stop-opacity="0"/>
</linearGradient>
<linearGradient id="paint3_linear_1616_4039" x1="412.451" y1="309.135" x2="412.451" y2="348.722" gradientUnits="userSpaceOnUse">
<stop stop-color="#E37471"/>
<stop offset="1" stop-color="#FA8B87"/>
</linearGradient>
<linearGradient id="paint4_linear_1616_4039" x1="460.84" y1="325.474" x2="460.84" y2="404.786" gradientUnits="userSpaceOnUse">
<stop stop-color="#FBB251"/>
<stop offset="1" stop-color="#FBB251" stop-opacity="0"/>
</linearGradient>
<linearGradient id="paint5_linear_1616_4039" x1="433.632" y1="324.948" x2="433.632" y2="402.393" gradientUnits="userSpaceOnUse">
<stop stop-color="#E37471"/>
<stop offset="1" stop-color="#FA8B87"/>
</linearGradient>
<linearGradient id="paint6_linear_1616_4039" x1="493.665" y1="328.583" x2="493.665" y2="402.295" gradientUnits="userSpaceOnUse">
<stop stop-color="#E37471"/>
<stop offset="1" stop-color="#FA8B87"/>
</linearGradient>
<linearGradient id="paint7_linear_1616_4039" x1="514.424" y1="308.965" x2="514.424" y2="345.903" gradientUnits="userSpaceOnUse">
<stop stop-color="#E37471"/>
<stop offset="1" stop-color="#FA8B87"/>
</linearGradient>
<clipPath id="clip0_1616_4039">
<rect y="0.324707" width="560" height="389" rx="10" fill="white"/>
</clipPath>
</defs>
</svg>
